<?xml version="1.0" encoding="UTF-8" standalone="no"?>
<!DOCTYPE svg PUBLIC "-//W3C//DTD SVG 1.1//EN" "http://www.w3.org/Graphics/SVG/1.1/DTD/svg11.dtd">
<svg width="100%" height="100%" viewBox="0 0 463 377" version="1.1" xmlns="http://www.w3.org/2000/svg" xmlns:xlink="http://www.w3.org/1999/xlink" xml:space="preserve" xmlns:serif="http://www.serif.com/" style="fill-rule:evenodd;clip-rule:evenodd;stroke-linejoin:round;stroke-miterlimit:2;">
    <g transform="matrix(1,0,0,1,-271.331833,-222.262828)">
        <g id="Fox">
            <path id="Body" d="M346.968,231.416C323.586,252.893 320.884,291.216 320.316,330.705C299.89,365.657 297.276,400.014 312.699,433.77C287.278,450.247 267.738,469.239 271.89,478.286C301.476,493.032 312.523,505.798 342.108,538.505C384.005,579.189 440.187,597.425 507.178,598.675C655.305,593.464 736.359,552.055 733.921,465.586C729.521,417.586 708.063,385.288 673.019,361.863C638.991,339.118 592.312,323.953 530.928,330.705C529.713,320.109 525.861,310.699 518.381,302.923C525.668,254.174 524.554,230.63 518.381,222.263C501.712,222.608 479.737,235.336 454.258,256.238C432.402,251.848 413.256,253.644 393.358,263.937C379.167,248.558 363.55,237.235 346.968,231.416Z" style="fill:rgb(177,56,1);"/>
            <g id="Tail">
                <path d="M647.225,359.977C659.653,370.046 673.627,395.836 673.664,414.198C673.692,428.457 667.012,443.064 656.026,454.336C670.125,466.532 663.382,473.123 651.136,481.301C626.375,497.837 591.87,500.504 580.014,501.131C517.864,504.42 468.773,466.41 409.819,439.547L370.559,507.098C400.706,535.314 451.289,568.726 527.992,568.758C645.325,568.806 692.484,493.065 692.484,493.065C691.733,504.615 687.986,515.166 681.73,524.881C704.913,505.811 715.857,476.217 715.108,448.473C713.028,371.412 647.225,359.977 647.225,359.977Z" style="fill:rgb(243,103,15);"/>
                <path d="M292.455,471.605C295.445,467.579 325.035,429.826 381.75,431.193C426.401,432.27 480.874,472.749 515.059,490.415C466.938,476.349 430.824,457.339 403.275,457.88C419.108,463.82 435.63,474.622 451.463,490.351C426.879,494.591 404.397,494.809 387.767,491.707C401.158,510.806 421.346,524.476 442.074,533.173C426.158,535.489 410.639,533.403 396.21,528.015C383.85,519.08 366.377,505.774 358.684,497.631C336.936,474.611 319.837,467.301 292.455,471.605Z" style="fill:white;"/>
                <path d="M396.21,528.015C388.676,525.201 381.438,521.487 374.596,517.03C382.666,532.024 396.325,546.158 420.303,558.704C366.142,556.279 346.861,506.718 292.455,471.605C292.455,471.605 292.285,471.834 292.455,471.605C319.837,467.301 336.936,474.611 358.684,497.631C366.377,505.774 383.85,519.08 396.21,528.015Z" style="fill:rgb(241,212,178);"/>
            </g>
            <g id="Face">
                <path d="M502.546,401.035C505.366,408.269 500.168,417.02 494.403,422.18C491.078,425.187 492.455,427.965 498.039,426.237C505.246,421.94 509.197,413.781 510.388,405.875C511.016,391.397 511.241,385.359 517.112,379.538C521.16,375.526 522.805,366.499 522.633,357.807L521.223,343.006L497.142,386.469L502.546,401.035Z" style="fill:white;"/>
                <path d="M326.031,390.926C353.068,355.134 417.106,377.535 471.546,408.253C471.841,413.821 478.09,421.053 485.746,422.545C489.179,423.214 487.702,427.182 486.706,428.39C483.265,431.212 479.779,433.014 472.016,433.43C447.412,434.749 409.544,404.476 367.292,402.967C355.061,402.53 344.135,406.438 334.254,413.833C334.975,401.184 342.146,392.22 356.573,387.402C347.005,385.31 336.774,386.753 326.031,390.926Z" style="fill:white;"/>
                <path d="M512.051,241.434C513.525,255.027 514.131,270.319 510.077,294.718C505.164,290.113 499.453,286.418 492.786,283.817L512.051,241.434Z" style="fill:rgb(241,212,178);"/>
                <path d="M354.542,253.179C350.488,284.255 353.584,309.735 363.94,329.534L385.671,302.516L354.542,253.179Z" style="fill:white;"/>
                <path d="M354.282,253.436C373.089,261.564 391.872,275.65 410.497,298.243C409.868,289.424 406.075,280.456 399.939,272.249C428.255,261.549 452.709,264.348 474.734,276.838C487.611,258.156 500.102,245.274 512,241.276L493.089,284.18C514.35,307.276 521.357,326.809 521.079,344.521C517.665,360.159 516.295,360.732 507.449,373.203C502.029,380.846 502.244,397.571 502.367,400.849C487.997,399.708 477.517,402.009 471.293,408.073C430.314,386.894 394.315,373.995 366.807,373.805C348.375,374.444 334.512,379.889 325.603,391.554C323.492,375.079 326.7,360.012 335.239,346.356C342.134,338.028 351.699,332.527 363.918,329.837C363.581,312.57 369.683,303.428 382.502,302.764L354.282,253.436Z" style="fill:rgb(243,103,15);"/>
                <path d="M513.541,339.756C508.416,352.572 504.257,358.291 496.926,363.287C495.268,364.428 492.243,367.609 493.994,369.753C501.24,370.779 513.929,364.615 514.593,355.619C515.136,350.53 514.803,345.246 513.541,339.756Z" style="fill:rgb(177,56,1);"/>
                <path d="M402.485,358.191C413.335,367.538 424.285,373.053 441.149,374.18C444.324,374.251 448.965,375.889 448.973,377.764C444.127,379.52 437.286,380.547 429.833,381.501C415.6,382.986 407.296,373.747 402.485,358.191Z" style="fill:rgb(177,56,1);"/>
            </g>
        </g>
        <g id="Baby">
            <path d="M537.301,374.066C547.727,355.72 564.02,343.661 589.152,342.175C627.798,339.89 647.29,374.341 647.29,374.341C647.29,374.341 627.67,350.489 589.382,351.123C556.618,351.665 537.301,374.066 537.301,374.066Z" style="fill:white;"/>
            <path d="M534.718,394.174C544.775,373.879 560.025,361.975 582.807,362.237C605.589,362.499 618.598,373.423 618.598,373.423C605.508,372.206 596.924,375.831 591.665,382.445C602.376,382.456 609.717,386.467 622.086,386.281C617.126,390.822 607.795,394.001 598.825,396.287C609.029,399.237 619.69,399.556 630.896,396.743C628.698,403.139 622.387,408.042 614.176,411.431C626.482,413.499 636.598,409.938 645.396,402.984C658.503,435.464 637.494,453.268 636.145,453.547C616.307,457.646 611.107,477.061 608.427,478.783C597.733,485.654 582.514,482.431 580.624,480.212C564.238,460.977 553.449,463.595 544.263,460.25C521.356,451.909 527.193,415.098 527.193,415.098C517.961,416.156 516.731,409.59 516.731,400.598C516.731,391.606 519.954,383.537 525.904,383.537C530.685,383.537 533.749,387.453 534.718,394.174Z" style="fill:rgb(255,213,163);"/>
            <path d="M563.564,396.093C563.564,396.093 569.661,396.481 574.932,399.383C580.348,402.366 582.505,406.812 582.505,406.812C582.505,406.812 581.576,400.582 576.338,397.268C570.892,393.823 563.564,396.093 563.564,396.093Z" style="fill:rgb(177,56,1);"/>
            <path d="M617.341,431.105C617.341,431.105 622.446,433.033 625.895,437.209C628.765,440.683 630.468,446.581 630.468,446.581C630.468,446.581 631.198,439.064 627.731,434.858C625.132,431.705 617.341,431.105 617.341,431.105Z" style="fill:rgb(177,56,1);"/>
            <path d="M598.745,445.43C600.029,445.559 602.158,451.22 606.533,454.166C612.666,458.295 617.143,457.291 617.305,458.498C617.473,459.751 612.3,462.349 604.028,457.209C595.997,452.217 597.478,445.303 598.745,445.43Z" style="fill:rgb(177,56,1);"/>
            <path d="M554.166,410.63C555.896,410.017 556.507,417.742 562.027,422.148C568.828,427.576 572.543,425.713 572.814,427.369C573.032,428.698 568.211,432.365 559.893,426.048C557.085,423.916 553.628,420.017 550.159,417.24C552.176,417.629 553.238,418.346 554.907,418.99C553.356,416.644 550.863,415.182 548.914,414.171C552.361,415.11 553.038,415.612 553.957,415.088C553.957,415.088 552.867,411.09 554.166,410.63Z" style="fill:rgb(177,56,1);"/>
            <path d="M577.193,446.104C575.192,445.003 579.163,459.587 588.699,454.948C596.043,451.375 586.323,441.103 585.527,443.081C584.822,444.831 591.814,449.754 586.757,452.172C580.779,455.03 579.109,447.159 577.193,446.104Z" style="fill:rgb(177,56,1);"/>
            <path d="M562.389,457.177C562.938,456.163 567.92,458.816 570.318,460.26C572.716,461.704 577.422,465.803 576.719,466.622C575.949,467.517 571.465,464.448 569.143,463.05C566.745,461.606 561.886,458.106 562.389,457.177Z" style="fill:rgb(177,56,1);"/>
            <path d="M507.5,426.385C507.54,426.37 507.579,426.356 507.619,426.341C511.531,425.038 515.416,425.08 519.283,426.333C519.339,438.84 525.256,451.265 532.162,462.487C532.29,464.649 529.934,465.417 527.922,466.081C529.24,465.798 531.031,465.5 532.979,465.424C539.401,465.173 548.155,466.069 552.587,467.164C567.365,470.814 576.9,482.759 578.247,485.663C582.043,493.845 575.936,491.85 574.084,489.392C572.274,486.989 569.188,484.316 566.5,483.167C566.5,483.167 570.362,489.485 571.052,490.949C573.726,496.619 568.349,496.139 565.913,492.858C562.227,487.894 557.396,485.663 557.396,485.663C557.396,485.663 560.494,490.509 561.067,491.83C563.409,497.232 558.556,497.463 556.298,493.481C555.316,491.75 552.215,489.293 548.834,488.453C545.517,487.628 536.807,487.512 531.869,486.057C525.302,481.131 505.073,464.944 499.348,448.484C496.293,439.698 503.358,430.693 507.5,426.385Z" style="fill:rgb(255,213,163);"/>
            <path d="M531.869,486.057C531.314,485.893 530.807,485.713 530.361,485.513C504.28,473.823 480.161,453.8 480.161,453.8C483.36,442.159 491.029,432.41 507.5,426.385C503.358,430.693 496.293,439.698 499.348,448.484C505.073,464.944 525.302,481.131 531.869,486.057Z" style="fill:rgb(231,175,126);"/>
            <path d="M614.939,482.101C613.614,487.246 618.513,485.95 620.445,482.314C622.012,479.363 626.222,472.657 628,472.807C628.647,472.862 625.422,479.316 624.794,480.845C622.697,485.947 628.462,485.594 630.428,480.935C631.492,478.414 635.82,472.119 637.128,472.595C637.679,472.795 635.748,476.387 635.206,477.732C632.85,483.574 637.006,482.996 640.557,477.202C641.558,475.568 645.514,473.978 647.422,473.662C652.985,472.741 657.417,468.017 657.351,465.96C657.207,461.49 649.136,458.281 643.828,458.179C635.511,458.018 628.221,461.817 623.043,466.842C618.717,471.041 615.62,479.459 614.939,482.101Z" style="fill:rgb(255,213,163);"/>
        </g>
    </g>
</svg>
